# xmcd
#
# Track frame offsets:
#	150
#	10839
#	28168
#	42674
#	56415
#	71341
#	84474
#	97665
#	112725
#	123195
#	143102
#	159968
#	173575
#	186262
#	201192
#	211192
#
# Disc length: 2826 seconds
#
# Revision: 1
# Processed by: cddbd v1.5.2PL0 Copyright (c) Steve Scherf et al.
# Submitted via: audiograbber 1.83.01
#
DISCID=c70b0810
DTITLE=Hillcrest - Hillcrest Pure Country 79
DYEAR=2016
DGENRE=
TTITLE0=How Can I Face Tomorrow -Tracy K Houston
TTITLE1=Forever Evryday -Lacy Jay Syler
TTITLE2=Texas In Another Life -Lonnie Spiker
TTITLE3=Standing Tall -Kate Bain
TTITLE4=It´s Wrong You´re Gone -Dave Sheriff
TTITLE5=A Little Bluer Than That -Mauren MacGillavry
TTITLE6=Life´s A Rodeo Trails -Kadin Hernandez
TTITLE7=What If -Don Allen
TTITLE8=Two Steppin´ Out On Me -Bonita Mercer
TTITLE9=Heat And Dust -Danny Mayers
TTITLE10=Let Me Be There -Brandon McPhee
TTITLE11=I Can´t Tell You -Cortni Jack
TTITLE12=Hello Darlin -George Jack
TTITLE13=I´ll Be Seeing You Sumday -Ann Pascoe
TTITLE14=A Rose Between Two Thorns -Brian Dolph
TTITLE15=Radio Liner -Ross Allen
EXTD=
EXTT0=
EXTT1=
EXTT2=
EXTT3=
EXTT4=
EXTT5=
EXTT6=
EXTT7=
EXTT8=
EXTT9=
EXTT10=
EXTT11=
EXTT12=
EXTT13=
EXTT14=
EXTT15=
PLAYORDER=
